<svg xmlns="http://www.w3.org/2000/svg" xmlns:xlink="http://www.w3.org/1999/xlink" data-name="Layer 1" viewBox="0 0 48 48"><defs><linearGradient id="a" x1="68.53" x2="-13.65" y1="64.72" y2="-17.47" gradientUnits="userSpaceOnUse"><stop offset="0" stop-color="#27e9de"/><stop offset=".52" stop-color="#03a4ec"/><stop offset="1" stop-color="#2547a8"/></linearGradient><linearGradient xlink:href="#a" id="b" x1="63.52" x2="18.27" y1="59.6" y2="14.48"/><linearGradient id="c" x1="39.51" x2="-42.16" y1="39.94" y2="-16.56" gradientUnits="userSpaceOnUse"><stop offset="0" stop-color="#273a9b"/><stop offset=".56" stop-color="#202f65"/><stop offset="1" stop-color="#021e2f"/></linearGradient></defs><path d="m36.12 18.94 3.27 2a40.44 40.44 0 0 0 5.38-17.71 40.26 40.26 0 0 0-23.09 9.08l1.39 2.22-2.29-1.43a44 44 0 0 0-2 1.86A40.22 40.22 0 0 0 7 41a40.4 40.4 0 0 0 18.24-5.66l-2.23-3.56 4 2.47a40.3 40.3 0 0 0 6-5 40.2 40.2 0 0 0 5.35-6.64Z" style="fill:url(#a)"/><path d="M33.05 29.24a40.2 40.2 0 0 0 5.35-6.64l-2.29-3.65 3.27 2a40.44 40.44 0 0 0 5.39-17.72L7.05 40.91a40.4 40.4 0 0 0 18.24-5.66l-2.23-3.56 4 2.47a40.3 40.3 0 0 0 5.99-4.92" style="fill:url(#b)"/><path d="M37.75 10.79a1 1 0 0 0 .18-.27l.37-.82-.82.37a1 1 0 0 0-.27.18L4.14 41.45a2.23 2.23 0 0 0-.63 1.05l-.24.91a1.08 1.08 0 0 0 1.32 1.32l.91-.24a2.23 2.23 0 0 0 1.05-.63Z" style="fill:url(#c)"/></svg>