<svg width="16" height="16" fill="none" xmlns="http://www.w3.org/2000/svg"><path fill-rule="evenodd" clip-rule="evenodd" d="M14.475 1H1.525A.525.525 0 0 0 1 1.525V8a7 7 0 1 0 14 0V1.525A.525.525 0 0 0 14.475 1Zm-.525 1.05H2.05V8a5.95 5.95 0 0 0 11.447 2.277l.014-.034A5.95 5.95 0 0 0 13.95 8V2.05Z" fill="#F58220"/><path d="m9.172 8.013-.895-2.445a5.352 5.352 0 0 1-.137-.386c-.048-.15-.095-.31-.142-.483-.044.173-.09.336-.138.488a5.66 5.66 0 0 1-.137.391l-.89 2.435h2.339Zm2.414 2.776H10.53a.46.46 0 0 1-.29-.087.574.574 0 0 1-.168-.224l-.549-1.5H6.478l-.55 1.5a.487.487 0 0 1-.157.214.44.44 0 0 1-.29.097H4.414l2.892-7.35H8.7l2.887 7.35Z" fill="#F58220"/></svg>