<svg xmlns="http://www.w3.org/2000/svg" width="16" height="16" fill="none" viewBox="0 0 16 16"><path fill="#F58220" fill-rule="evenodd" d="M14.475 1H1.525A.525.525 0 0 0 1 1.525V8a7 7 0 1 0 14 0V1.525A.525.525 0 0 0 14.475 1m-.525 1.05H2.05V8a5.95 5.95 0 0 0 11.447 2.277l.014-.034A6 6 0 0 0 13.95 8z" clip-rule="evenodd"/><path fill="#F58220" d="m9.172 8.013-.895-2.445a5 5 0 0 1-.137-.386q-.072-.224-.142-.483-.066.26-.138.488a6 6 0 0 1-.137.391l-.89 2.435zm2.414 2.776H10.53a.46.46 0 0 1-.29-.087.6.6 0 0 1-.168-.224l-.549-1.5H6.478l-.55 1.5a.5.5 0 0 1-.157.214.44.44 0 0 1-.29.097H4.414l2.892-7.35H8.7z"/></svg>